# xmcd CD database file
#
# Track frame offsets:
#	150
#	23632
#	39642
#	60372
#	79976
#	102202
#	120365
#
# Disc length: 1880 seconds
#
# Revision: 0
# Processed by: cddbd v1.5.1PL0 Copyright (c) Steve Scherf et al.
# Submitted via: CDex 1.51
#
DISCID=4a075607
DTITLE=El Verno Del Congo - Tuk 'n Jazz
DYEAR=1900
DGENRE=Jazz
TTITLE0=Have You Met Miss Jones
TTITLE1=Four
TTITLE2=In Your Natural Way
TTITLE3=Joy Spring
TTITLE4=Night In Tunisia
TTITLE5=Tukkin' To The Blues
TTITLE6=Roxy Roundabout
EXTD=
EXTT0=
EXTT1=
EXTT2=
EXTT3=
EXTT4=
EXTT5=
EXTT6=
PLAYORDER=
